<svg><defs><font id="iconfont" horiz-adv-x="1024"><font-face font-family="iconfont" font-weight="500" units-per-em="1024" ascent="896" descent="-128"/><glyph glyph-name="home2" unicode="" d="m935.56 367.879-423.562 370.61L88.44 367.879l-23.15 26.446 446.708 390.87 446.711-390.87-23.15-26.446zM860.215-17.195H579.994v215.968H440.591V-17.195H161.36v361.478l348.856 311.95 350-311.863V-17.195zM615.164 17.947h209.9v310.651L510.274 609.11 196.53 328.569V17.947h208.91v215.978h209.686V17.947h.038zm0 0" horiz-adv-x="1024"/><glyph glyph-name="shangpin" unicode="" d="m909.7 676.6-6.1 3.2v128.7c0 4.6-1.8 8.7-4.2 12.2-.3.4-.5.8-.8 1.2-1.1 1.3-2.2 2.5-3.6 3.5-.7.6-1.5 1.1-2.3 1.5-1.2.7-2.4 1.4-3.8 1.9-1.8.7-3.8 1-5.8 1.2-.5 0-.9.3-1.4.3H139.9c-9.7 0-18.2-6.3-20.9-15.6-1.4-4.6-1.2-9.4.4-13.7-.7-2.1-1.3-4.2-1.3-6.5V679.8l-6.4-3.2c-9-1.2-15.7-5.3-15.7-15.1V-28.7l2-1.9c2.4-18.1 16.9-32 35.3-33.1l.5-.4h752.4c20.4 0 36.6 15.9 38 35.9l1 .9v688.7c.1 9.9-6.5 13.9-15.5 15.2zm-88.3 110.1-58.6-37.5c-5.6-4.3-8.8-11.1-8.5-18.1.3-7.1 3.9-13.6 9.8-17.4l66.3-36.5H194.8l73 37.8c6.3 3.9 10.2 10.8 10.4 18.3.1 7.5-3.6 14.5-9.9 18.5l-64.7 34.9h617.8zm38.6-17.3v-66.7l-57.9 30.5 57.9 36.2zm-698.2 1.3 63.4-36.7-63.4-32.1v68.8zM881.7-20.6h-742v654.1h741.9V-20.6zM340.1 472.8c15.9-86.5 78.5-143.9 163.2-143.9 84.6 0 147.2 57.2 163.2 143.6 13.3 7 22.5 20.8 22.5 36.8 0 23-18.7 41.8-41.8 41.8-23 0-41.8-18.7-41.8-41.8 0-13.6 6.6-25.6 16.7-33.2C610 420 572.2 372.5 503.2 372.5c-68.9 0-106.6 47.3-118.8 103.3 10.3 7.6 17.1 19.7 17.1 33.5 0 23-18.8 41.8-41.8 41.8-23 0-41.7-18.7-41.7-41.8.1-15.8 9.1-29.5 22.1-36.5z" horiz-adv-x="1024"/><glyph glyph-name="movie1" unicode="" d="M889.856 804.864H134.144C60.416 804.864 0 744.96 0 670.72V97.28C0 23.04 60.416-36.864 134.144-36.864h755.712C963.584-36.864 1024 23.552 1024 97.28v573.44c0 74.24-60.416 134.144-134.144 134.144zM958.464 153.6V96.768c0-37.888-30.72-68.608-68.608-68.608h-15.36V153.6h83.968zm0 197.632V219.648h-83.968v131.584h83.968zm0 174.592V416.768h-83.968v109.056h83.968zm0 144.896v-78.848h-83.968v147.456h15.36c37.888 0 68.608-30.72 68.608-68.608zm-150.016 68.608V28.672H215.552v710.656h592.896zM149.504 153.6V28.16h-15.36c-37.888 0-68.608 30.72-68.608 68.608V153.6h83.968zm0 197.632V219.648H65.536v131.584h83.968zm0 174.592V416.768H65.536v109.056h83.968zm0 213.504V591.872H65.536v78.848c0 37.888 30.72 68.608 68.608 68.608h15.36zM396.8 217.6c4.608-3.072 10.752-4.608 16.384-4.608s11.264 1.536 16.384 4.608l238.08 137.216c10.24 5.632 16.384 16.896 16.384 28.672s-6.144 22.528-16.384 28.672l-238.08 137.728c-10.24 6.144-22.528 6.144-32.768 0-10.24-5.632-16.384-16.896-16.384-28.672V246.272c0-11.776 6.144-22.528 16.384-28.672zm49.152 85.504v161.28l139.776-80.896-139.776-80.384z" horiz-adv-x="1024"/><glyph glyph-name="wode1" unicode="" d="M511.62 831.02c-191.96 0-347.51-155.55-347.51-347.51s155.55-347.52 347.51-347.52 347.51 155.56 347.51 347.52-155.55 347.51-347.51 347.51zm0-66.2c155.06 0 281.32-126.26 281.32-281.32S666.68 202.18 511.62 202.18c-155.05 0-281.32 126.26-281.32 281.32.01 155.06 126.27 281.32 281.32 281.32M717.65-62.42c-9.1 0-18.04 3.64-24.66 10.92a245.929 245.929 0 0 1-182.03 81.09c-68.68 0-134.71-29.13-181.04-79.93-12.24-13.57-33.26-14.4-46.83-2.15-13.57 12.41-14.4 33.27-2.15 46.83C339.86 58.71 423.59 95.78 510.8 95.78c88.03 0 172.26-37.56 231.17-102.93 12.25-13.57 11.09-34.42-2.48-46.83-5.95-5.63-13.9-8.44-21.84-8.44zm-205.7 352.48a187 187 0 0 0-138.84 61.89c-12.24 13.57-11.09 34.42 2.48 46.67s34.42 11.09 46.67-2.48a121.108 121.108 0 0 1 89.69-39.88c33.92 0 66.36 14.4 89.2 39.39 12.24 13.57 33.26 14.4 46.83 2.15 13.57-12.41 14.4-33.26 2.15-46.83a188.149 188.149 0 0 0-138.18-60.91z" horiz-adv-x="1024"/><glyph glyph-name="gengduo" unicode="" d="M768.06 791.34c40.68 0 78.93-15.84 107.69-44.61 28.77-28.77 44.61-67.01 44.61-107.69 0-40.68-15.84-78.93-44.61-107.69-28.77-28.77-67.01-44.61-107.69-44.61h-152.3v152.3c0 40.68 15.84 78.93 44.61 107.69 28.76 28.77 67.01 44.61 107.69 44.61m0 40c-106.2 0-192.3-86.1-192.3-192.3V479.75c0-18.23 14.78-33.01 33.01-33.01h159.29c106.2 0 192.3 86.1 192.3 192.3-.01 106.21-86.1 192.3-192.3 192.3zm-512.01-40c40.68 0 78.93-15.84 107.69-44.61 28.77-28.77 44.61-67.01 44.61-107.69v-152.3h-152.3c-40.68 0-78.93 15.84-107.69 44.61-28.77 28.77-44.61 67.01-44.61 107.69 0 40.68 15.84 78.93 44.61 107.69 28.76 28.77 67.01 44.61 107.69 44.61m0 40c-106.2 0-192.3-86.1-192.3-192.3 0-106.2 86.1-192.3 192.3-192.3h159.29c18.23 0 33.01 14.78 33.01 33.01v159.29c0 106.21-86.1 192.3-192.3 192.3zM408.35 281V128.7c0-40.68-15.84-78.93-44.61-107.69C334.97-7.76 296.73-23.6 256.05-23.6c-40.68 0-78.93 15.84-107.69 44.61-28.77 28.77-44.61 67.01-44.61 107.69 0 40.68 15.84 78.93 44.61 107.69C177.12 265.16 215.37 281 256.05 281h152.3m6.99 40H256.05c-106.2 0-192.3-86.09-192.3-192.3 0-106.2 86.1-192.3 192.3-192.3 106.2 0 192.3 86.09 192.3 192.3v159.29c0 18.23-14.78 33.01-33.01 33.01zm352.72 0H608.77c-18.23 0-33.01-14.78-33.01-33.01v-6.15c-.01-.23-.03-.46-.03-.69 0-11.06 8.96-20.02 20.02-20.02 11.01 0 19.93 8.88 20.01 19.87h152.31c40.68 0 78.93-15.84 107.69-44.61 28.77-28.77 44.61-67.01 44.61-107.69 0-40.68-15.84-78.93-44.61-107.69C846.99-7.76 808.75-23.6 768.07-23.6c-40.68 0-78.93 15.84-107.69 44.61-28.77 28.77-44.61 67.01-44.61 107.69V168h-.06c-.62 10.5-9.3 18.84-19.96 18.84-11.06 0-20.02-8.96-20.02-20.02 0-.23.03-.46.03-.69v-37.42c0-106.2 86.09-192.3 192.3-192.3 106.2 0 192.3 86.09 192.3 192.3-.01 106.2-86.1 192.29-192.3 192.29z" horiz-adv-x="1024"/><glyph glyph-name="top" unicode="" d="M764.327 436.65c-7.992-7.993-20.947-7.993-28.95 0L547.602 624.435V20.532c0-11.297-9.159-20.466-20.466-20.466s-20.466 9.169-20.466 20.466v603.904L318.882 436.639c-3.991-3.991-9.23-5.986-14.47-5.986s-10.468 1.995-14.47 5.986c-7.991 8.002-7.991 20.957 0 28.95L512.666 688.31a20.473 20.473 0 0 0 14.47 5.996c5.433 0 10.642-2.159 14.48-5.996l222.712-222.713c7.992-7.992 7.992-20.947 0-28.949zm78.549 308.966c0-11.297-9.159-20.466-20.466-20.466H231.86c-11.308 0-20.466 9.169-20.466 20.466 0 11.307 9.158 20.466 20.466 20.466h590.55c11.307 0 20.466-9.159 20.466-20.466z" horiz-adv-x="1024"/><glyph glyph-name="music" unicode="" d="M512 896C229.216 896 0 666.784 0 384c0-282.768 229.216-512 512-512 282.752 0 512 229.232 512 512 0 282.784-229.248 512-512 512zm0-992C246.896-96 32 118.912 32 384c0 265.104 214.896 480 480 480 265.056 0 480-214.896 480-480 0-265.088-214.944-480-480-480zm198.672 710.56c0 .496-.24.928-.288 1.408-.048.464.112.896.032 1.36-.112.608-.464 1.056-.64 1.632-.32 1.072-.672 2.08-1.184 3.04-.48.88-1.024 1.664-1.664 2.432-.656.816-1.328 1.552-2.144 2.224a17.06 17.06 0 0 1-2.464 1.664c-.896.496-1.792.928-2.8 1.248-.992.336-2 .496-3.072.624-.608.064-1.136.352-1.776.352-.496 0-.928-.24-1.408-.288-.464-.032-.912.112-1.376.032L331.776 566.48c-.752-.128-1.328-.576-2.032-.8-.832-.272-1.616-.544-2.368-.944a15.51 15.51 0 0 1-2.96-2c-.672-.56-1.264-1.104-1.824-1.76a15.273 15.273 0 0 1-1.904-2.816c-.432-.816-.816-1.616-1.104-2.496-.352-1.056-.544-2.128-.672-3.264-.064-.608-.352-1.12-.352-1.744V239.952c-11.44 5.968-25.2 9.472-40 9.472-39.76 0-72-25.088-72-56 0-30.944 32.24-56 72-56s72 25.056 72 56c0 .16-.064.32-.064.496 0 .128.064.224.064.32v241.552l328.128 57.856V303.84c-11.44 5.968-25.184 9.472-40 9.472-39.776 0-72-25.088-72-56s32.224-56 72-56c39.744 0 72 25.088 72 56 0 .192-.064.336-.064.496 0 .128.064.224.064.336V614.56zM278.544 169.44c-22.096 0-40 10.752-40 24s17.904 24 40 24 40-10.752 40-24-17.904-24-40-24zm360.128 63.872c-22.096 0-40 10.752-40 24s17.904 24 40 24 40-10.752 40-24-17.904-24-40-24zM350.544 468.288v69.04l328.128 58.144v-69.328l-328.128-57.856z" horiz-adv-x="1024"/><glyph glyph-name="zixun2" unicode="" d="M432 288H304c-17.6 0-32-14.4-32-32s14.4-32 32-32h128c17.6 0 32 14.4 32 32s-14.4 32-32 32zm160 160H304c-17.6 0-32-14.4-32-32s14.4-32 32-32h288c17.6 0 32 14.4 32 32s-14.4 32-32 32zm0 160H304c-17.6 0-32-14.4-32-32s14.4-32 32-32h288c17.6 0 32 14.4 32 32s-14.4 32-32 32zm192 32v32c0 70.4-57.6 128-128 128H240c-70.4 0-128-57.6-128-128V96c0-70.4 57.6-128 128-128h544c70.4 0 128 57.6 128 128v416c0 70.4-57.6 128-128 128zm64-544c0-35.2-28.8-64-64-64H240c-35.2 0-64 28.8-64 64v576c0 35.2 28.8 64 64 64h416c35.2 0 64-28.8 64-64V192c0-17.6 14.4-32 32-32s32 14.4 32 32v384c35.2 0 64-28.8 64-64V96z" horiz-adv-x="1024"/><glyph glyph-name="mine1" unicode="" d="M694.4 396.8c0 16-12.8 28.8-28.8 28.8s-28.8-12.8-28.8-28.8c0-67.2-54.4-121.6-121.6-121.6-67.2 0-121.6 54.4-121.6 121.6 0 16-12.8 28.8-28.8 28.8S336 412.8 336 396.8c0-99.2 80-182.4 182.4-182.4 92.8 0 176 83.2 176 182.4zm-16-313.6c144 64 243.2 208 243.2 374.4C921.6 681.6 736 864 512 864c-224 0-409.6-182.4-409.6-409.6C102.4 288 201.6 144 345.6 80 262.4 54.4 198.4 6.4 172.8-57.6c-6.4-16 0-32 16-38.4h12.8c12.8 0 22.4 6.4 28.8 19.2C262.4-3.2 377.6 48 515.2 48 646.4 48 758.4-3.2 796.8-76.8c6.4-16 25.6-22.4 41.6-12.8 16 6.4 22.4 25.6 12.8 41.6C822.4 9.6 758.4 54.4 678.4 83.2zM163.2 454.4c0 192 156.8 348.8 348.8 348.8s348.8-156.8 348.8-348.8S704 108.8 512 108.8 163.2 262.4 163.2 454.4z" horiz-adv-x="1024"/><glyph glyph-name="success" unicode="" d="M512-117.76C234.885-117.76 10.24 106.885 10.24 384S234.885 885.76 512 885.76 1013.76 661.115 1013.76 384 789.115-117.76 512-117.76zm0 51.026c248.934 0 450.734 201.8 450.734 450.734 0 248.934-201.8 450.734-450.734 450.734-248.934 0-450.734-201.8-450.734-450.734 0-248.934 201.8-450.734 450.734-450.734zm-89.221 361.011c60.928 74.332 195.942 222.68 382.085 340.163l15.616-37.479C649.334 435.067 509.112 274.724 465.03 158.193l-256.871 201.6 65.828 54.487 148.787-119.998z" horiz-adv-x="1024"/><glyph glyph-name="Arrow-DownSquare" unicode="" d="M85.333 209.92v348.587c0 150.613 96.854 252.16 241.494 252.16h369.92c144.64 0 241.92-101.547 241.92-252.16V209.92c0-151.04-97.28-252.587-241.92-252.587h-369.92c-144.64 0-241.494 101.547-241.494 252.587zM544 287.147V558.08c0 17.92-14.507 32-32 32-17.92 0-32-14.08-32-32V287.147L374.613 392.96A32.725 32.725 0 0 1 352 402.347c-8.107 0-16.213-3.414-22.613-9.387-12.374-12.373-12.374-32.853 0-45.227l160-160.853c11.946-11.947 33.28-11.947 45.226 0l160 160.853c12.374 12.374 12.374 32.854 0 45.227a32.725 32.725 0 0 1-45.653 0L544 287.147z" horiz-adv-x="1024"/><glyph glyph-name="Arrow-DownSquare1" unicode="" d="M85.333 558.25v-348.5c0-150.998 97.11-252.417 241.707-252.417h369.92c144.597 0 241.707 101.419 241.707 252.416v348.502c0 150.954-97.152 252.416-241.75 252.416h-369.92c-144.512 0-241.664-101.462-241.664-252.416zm244.054-210.73 159.957-160.64a32.981 32.981 0 0 1 45.397 0l159.915 160.64a32 32 0 0 1-45.397 45.184L544 287.019v271.146a32 32 0 1 1-64 0V287.02L374.784 392.704a31.957 31.957 0 0 1-45.27.085 32.043 32.043 0 0 1-.085-45.269z" horiz-adv-x="1024"/><glyph glyph-name="cinema2" unicode="" d="M887.467 19.911a34.133 34.133 0 0 0 0-68.267H136.533a34.133 34.133 0 0 0 0 68.267zm-45.511 796.445c69.12 0 125.155-56.036 125.155-125.156V114.87a45.511 45.511 0 0 0-83.558-24.963l-200.454 305.46C636.245 372.462 579.106 361.243 512 361.243s-124.245 11.219-171.099 34.122L140.447 89.907A45.511 45.511 0 0 0 56.89 114.87V691.2c0 69.12 56.035 125.156 125.155 125.156h659.912zm0-68.267H182.044a56.889 56.889 0 0 1-56.888-56.889V191.033L301.42 459.617a34.133 34.133 0 0 0 47.468 9.67c39.356-26.236 93.526-39.776 163.112-39.776s123.756 13.54 163.112 39.777a34.133 34.133 0 0 0 47.468-9.671l176.264-268.595V691.2a56.889 56.889 0 0 1-56.888 56.889z" horiz-adv-x="1024"/><glyph glyph-name="shangcheng" unicode="" d="M896-40.96H128c-22.528 0-40.96 18.432-40.96 40.96v768c0 22.528 18.432 40.96 40.96 40.96h768c22.528 0 40.96-18.432 40.96-40.96V0c0-22.528-18.432-40.96-40.96-40.96zM128 768V0h768v768H128zm384-424.96c-138.24 0-250.88 133.12-250.88 296.96 0 11.264 9.216 20.48 20.48 20.48s20.48-9.216 20.48-20.48c0-141.312 94.208-256 209.92-256s209.92 114.688 209.92 256c0 11.264 9.216 20.48 20.48 20.48s20.48-9.216 20.48-20.48c0-163.328-112.64-296.96-250.88-296.96z" horiz-adv-x="1024"/><glyph glyph-name="icon_mine" unicode="" d="M515.409 31.531c-144.533 0-261.795 119.99-261.795 265.886 0 16.362 13.635 31.36 31.36 31.36s31.362-13.635 31.362-31.36c0-113.172 89.992-204.528 200.436-204.528s201.8 91.356 201.8 204.528c0 16.362 13.636 31.36 31.361 31.36s31.361-13.635 31.361-31.36C778.567 150.157 659.941 31.53 515.41 31.53zm0-159.531C234.525-128 5.454 101.07 5.454 381.955s229.07 511.318 509.955 511.318c280.884 0 509.955-229.07 509.955-509.955 0-53.177-8.182-106.354-24.544-156.804-5.454-16.362-23.18-24.543-38.178-19.09-16.362 5.455-24.543 21.817-19.09 38.18 15 44.995 21.817 91.355 21.817 137.714-1.364 246.797-201.8 448.597-449.96 448.597-246.796 0-448.597-201.8-448.597-448.597S268.612-65.278 515.41-65.278c121.353 0 234.524 47.723 319.062 133.624 12.272 12.272 31.361 12.272 43.633 0 12.271-12.271 12.271-31.36 0-43.632C781.294-73.46 653.124-128 515.409-128z" horiz-adv-x="1026"/><glyph glyph-name="custom-my" unicode="" d="M510.54 833.245c-238.645 0-432.791-200.486-432.791-446.895 0-135.815 59.042-257.61 151.964-339.631 1.221-1.416 2.601-2.709 4.198-3.744 75.057-64.562 171.501-103.5 276.629-103.5 104.188 0 199.89 38.19 274.656 101.771 4.036 1.691 7.361 4.711 9.575 8.53 90.933 81.984 148.557 202.415 148.557 336.575.001 246.408-194.146 446.895-432.789 446.895zm0-852.525c-92.802 0-178.139 33.482-245.433 89.239 2.845 33.027 21.254 144.729 139.328 207.453 29.3-23.768 66.073-38.047 106.105-38.047 40.255 0 77.244 14.425 106.611 38.428 118.553-62.45 137.141-172.351 140.031-206.87C689.701 14.58 603.896-19.281 510.54-19.281zM378.224 417.249c0 75.336 59.333 136.606 132.317 136.606 72.964 0 132.333-61.27 132.333-136.606 0-75.347-59.37-136.635-132.333-136.635-72.983 0-132.317 61.288-132.317 136.635zm414.427-312.754c-10.552 53.96-43.617 144.875-146.209 203.834 22.701 30.133 36.368 67.881 36.368 108.919 0 98.06-77.283 177.881-172.271 177.881-94.999 0-172.273-79.82-172.273-177.881 0-41.275 13.801-79.202 36.708-109.41-102.594-59.379-135.226-150.802-145.535-204.47-69.067 73.165-111.737 173.007-111.737 282.981 0 223.685 176.214 405.621 392.836 405.621 216.601 0 392.852-181.965 392.852-405.621 0-109.445-42.284-208.817-110.741-281.854z" horiz-adv-x="1024"/><glyph glyph-name="yinle-" unicode="" d="M662.9 600.9c-6.1 3.5-13.2 4.4-19.9 2.6l-50.7-13.6c-16.9-4.5-28.7-19.9-28.7-37.4V410c-23.5 16.3-52.3 23.9-81.2 21.1-58.7-5.6-105.8-54.3-109.7-113.2-2.2-34.1 9.4-66.5 32.7-91.4 23-24.5 55.4-38.6 88.9-38.6 67.2 0 121.9 54.7 121.9 121.9 0 2.3-.1 4.6-.2 6.5v220.8c0 2.9 1.9 5.4 4.7 6.1l35.8 9.6c14 3.8 22.3 18.2 18.5 32.1-1.7 6.8-6 12.5-12.1 16zm-99.5-291.1c0-38.1-31-69-69-69s-69 31-69 69 31 69 69 69 69-31 69-69zM737 831.7H287c-112.2 0-203.5-91.3-203.5-203.5V139.9C83.5 27.7 174.8-63.6 287-63.6h450c112.2 0 203.5 91.3 203.5 203.5v488.2c0 112.3-91.3 203.6-203.5 203.6zm149.6-691.8C886.6 57.4 819.5-9.7 737-9.7H287c-82.5 0-149.6 67.1-149.6 149.6v488.2c0 82.5 67.1 149.6 149.6 149.6h450c82.5 0 149.6-67.1 149.6-149.6V139.9z" horiz-adv-x="1024"/><glyph glyph-name="zixun1" unicode="" d="M856 785.6H168c-32 0-57.6-25.6-57.6-57.6V41.6C110.4 9.6 136-16 168-16h686.4c32 0 57.6 25.6 57.6 57.6V728c0 32-25.6 57.6-56 57.6zm8-744c0-4.8-4.8-9.6-9.6-9.6H168c-4.8 0-9.6 4.8-9.6 9.6V728c0 4.8 4.8 9.6 9.6 9.6h686.4c4.8 0 9.6-4.8 9.6-9.6V41.6zM272 400h192c17.6 0 32 14.4 32 32v192c0 17.6-14.4 32-32 32H272c-17.6 0-32-14.4-32-32V432c0-17.6 14.4-32 32-32zm9.6 214.4h172.8V441.6H281.6v172.8zm480-310.4H260.8c-11.2 0-20.8-9.6-20.8-20.8 0-11.2 9.6-20.8 20.8-20.8h500.8c11.2 0 20.8 9.6 20.8 20.8 0 11.2-8 20.8-20.8 20.8zm0 137.6H579.2c-11.2 0-20.8-9.6-20.8-20.8 0-11.2 9.6-20.8 20.8-20.8h182.4c11.2 0 20.8 9.6 20.8 20.8 0 11.2-8 20.8-20.8 20.8zm0 137.6H579.2c-11.2 0-20.8-9.6-20.8-20.8 0-11.2 9.6-20.8 20.8-20.8h182.4c11.2 0 20.8 9.6 20.8 20.8 0 11.2-8 20.8-20.8 20.8zm0-412.8H260.8c-11.2 0-20.8-9.6-20.8-20.8 0-11.2 9.6-20.8 20.8-20.8h500.8c11.2 0 20.8 9.6 20.8 20.8 0 11.2-8 20.8-20.8 20.8z" horiz-adv-x="1024"/><glyph glyph-name="home1" unicode="" d="M793.738 392.254c-7.948 0-14.411-6.463-14.411-14.411V59.922c0-34.937-28.428-63.365-63.365-63.365H604.034v220.622c0 7.948-6.442 14.41-14.39 14.41H432.28c-7.948 0-14.411-6.462-14.411-14.41V-3.444h-111.95c-34.936 0-63.343 28.428-63.343 63.365v317.92c0 7.949-6.441 14.412-14.411 14.412-7.948 0-14.39-6.463-14.39-14.411V59.92c0-50.833 41.335-92.188 92.145-92.188h410.044c50.832 0 92.187 41.355 92.187 92.188v317.92c0 7.95-6.463 14.413-14.412 14.413zM575.234-3.423H446.69v206.19h128.544V-3.423zm360.87 502.298-104.132 75.07c-13.625 9.891-25.59 33.211-25.59 49.915v123.478c0 29.368-23.889 53.256-53.235 53.256h-36.573c-29.325 0-53.17-23.888-53.17-53.256V706.31c0-5.285-1.245-7.642-1.376-7.839-.436 0-2.925.153-7.38 3.384l-107.67 77.69c-13.057 9.477-23.603 17.119-25.874 18.865-2.794 2.402-6.616 4.018-10.175 3.887-3.341.196-7.27-1.44-10.044-3.843-2.49-1.92-15.524-11.376-30.896-22.534L85.863 498.875c-11.53-8.34-19.106-20.678-21.377-34.761-2.27-14.084 1.07-28.168 9.346-39.588l14.63-20.35c9.825-13.691 25.525-21.508 43.036-21.508h.022c1.834 0 3.711.087 5.568.262a14.43 14.43 0 0 1 7.03 2.642l366.833 264.686 366.897-264.686a14.427 14.427 0 0 1 7.03-2.642 60.106 60.106 0 0 1 5.59-.262c17.578 0 33.256 7.84 42.928 21.486l14.695 20.35c17.207 23.845 11.814 57.187-11.987 74.371zm-11.355-57.492-14.76-20.46c-4.15-5.808-10.962-9.236-18.779-9.454l-371.7 268.158-.02-.021c-4.827 3.516-12.315 3.646-17.316-.175L130.778 411.469c-7.84.218-14.695 3.646-18.931 9.542l-14.63 20.394c-3.799 5.22-5.328 11.66-4.279 18.123 1.026 6.506 4.499 12.162 9.782 15.962l384.169 277.089c11.311 8.21 18.888 13.712 24.04 17.554 4.39-3.231 10.525-7.642 19.127-13.908l107.757-77.777c8.123-5.808 16.266-8.8 24.215-8.8 15.024 0 30.177 11.333 30.177 36.662v41.028c0 13.472 10.939 24.434 24.368 24.434h36.573c13.451 0 24.433-10.962 24.433-24.434V623.86c0-25.853 16.464-58.038 37.514-73.258l104.155-75.112c10.916-7.883 13.362-23.19 5.501-34.107z" horiz-adv-x="1024"/><glyph glyph-name="caidanicondianyinghui" unicode="" d="M723.782 246.69c-32.582 0-62.837 11.637-86.11 34.91l-16.29 13.964c-25.6 23.272-37.237 53.527-39.564 86.109 0 32.582 11.637 62.836 34.91 86.109l18.617 18.618c23.273 23.273 53.528 34.91 86.11 34.91 62.836 0 116.363-46.546 123.345-107.055a283.636 283.636 0 0 0 0-62.837c-4.655-58.182-58.182-104.727-121.018-104.727zm0 216.437c-11.637 0-27.927-2.327-44.218-18.618l-18.619-18.618c-11.636-11.636-18.618-25.6-18.618-41.891 0-16.29 6.982-32.582 20.946-46.545l16.29-13.964c16.292-13.964 32.582-18.618 44.219-18.618 27.927 0 58.182 18.618 62.836 53.527 2.327 16.29 2.327 34.91 0 51.2-4.654 34.91-34.909 53.527-62.836 53.527zm-225.746 2.328c-32.581 0-62.836 11.636-86.109 34.909l-18.618 18.618c-34.909 32.582-44.218 81.454-27.927 125.673 13.963 44.218 53.527 72.145 100.073 76.8a283.636 283.636 0 0 0 62.836 0c46.545-4.655 86.109-32.582 102.4-76.8 16.29-44.219 4.654-93.091-27.927-125.673l-18.619-18.618c-23.272-20.946-53.527-34.91-86.109-34.91zm0 200.145h-25.6c-23.272-2.327-41.89-16.29-51.2-39.564-6.981-18.618-6.981-44.218 13.964-65.163l18.618-18.618c23.273-23.273 65.164-23.273 88.437 0l18.618 18.618c20.945 20.945 20.945 46.545 13.963 65.163-9.309 23.273-27.927 37.237-51.2 39.564h-25.6zM269.964 246.69c-65.164 0-116.364 46.546-123.346 107.055a283.636 283.636 0 0 0 0 62.837c6.982 60.509 60.51 107.054 123.346 107.054 32.581 0 62.836-11.636 86.109-34.909l16.29-16.29c25.6-23.273 37.237-53.528 39.564-86.11 0-32.582-11.636-62.836-34.909-86.109L356.073 281.6c-20.946-23.273-53.528-34.91-86.11-34.91zm0 218.765c-27.928 0-58.182-18.619-62.837-53.528-2.327-16.29-2.327-34.909 0-51.2 2.328-34.909 34.91-53.527 62.837-53.527 11.636 0 27.927 2.327 44.218 18.618l20.945 18.618c11.637 11.637 18.618 25.6 18.618 41.891 0 16.291-6.981 32.582-20.945 46.546l-16.29 16.29c-16.292 11.637-34.91 16.292-46.546 16.292zM495.709 44.218c-9.309 0-20.945 0-30.254 2.327-46.546 4.655-86.11 32.582-104.728 76.8-16.29 44.219-4.654 93.091 27.928 125.673l20.945 18.618c23.273 23.273 53.527 34.91 86.11 34.91 32.58 0 62.835-11.637 86.108-34.91l20.946-18.618c34.909-32.582 44.218-81.454 27.927-125.673-16.291-44.218-55.855-74.472-102.4-76.8-9.31-2.327-20.946-2.327-32.582-2.327zm2.327 200.146c-16.29 0-32.581-6.982-44.218-18.619l-20.945-18.618c-18.618-16.29-23.273-41.89-13.964-65.163 9.31-23.273 27.927-37.237 51.2-39.564 18.618-2.327 34.91-2.327 53.527 0 23.273 2.327 44.219 16.29 51.2 39.564 9.31 23.272 2.328 46.545-13.963 62.836l-20.946 18.618c-9.309 13.964-25.6 20.946-41.89 20.946zM1024-67.491c0 16.291-13.964 30.255-30.255 30.255-39.563 0-90.763 6.981-109.381 34.909-20.946 32.582 4.654 88.436 13.963 107.054 48.873 79.128 79.128 141.964 90.764 221.091 2.327 23.273 4.654 41.891 4.654 58.182 0 18.618-2.327 37.236-4.654 60.51-27.927 218.763-204.8 388.654-430.546 416.58-46.545 4.655-76.8 4.655-123.345 0C209.455 833.165 32.582 663.274 4.655 444.51 2.327 421.235 0 402.617 0 384c0-18.618 2.327-37.236 4.655-58.182C32.582 104.728 209.455-65.164 435.2-93.09c46.545-4.654 76.8-4.654 123.345 0 55.855 6.982 111.71 23.273 160.582 48.873 13.964 6.982 20.946 25.6 13.964 39.563-6.982 13.964-25.6 20.946-39.564 13.964-44.218-20.945-93.09-34.909-141.963-41.89-41.891-4.655-67.491-4.655-109.382 0C244.364-9.31 88.436 141.963 62.836 335.126c-2.327 18.618-4.654 37.237-4.654 51.2 0 16.291 2.327 32.582 4.654 53.528 25.6 188.509 181.528 339.781 379.346 363.054 41.89 4.655 67.49 4.655 109.382 0 197.818-23.273 353.745-174.545 377.018-365.382 2.327-20.945 4.654-37.236 4.654-53.527 0-16.29 0-32.582-4.654-51.2-9.31-69.818-37.237-125.673-81.455-200.145C844.8 128 791.273 34.909 833.164-32.582c25.6-41.89 79.127-65.163 160.581-65.163 16.291 0 30.255 13.963 30.255 30.254z" horiz-adv-x="1024"/><glyph glyph-name="biaoqiankuozhan_zixun-106" unicode="" d="M725.606 8.909H277.094c-67.737 0-122.88 55.142-122.88 122.88v504.627c0 67.738 55.143 122.88 122.88 122.88h448.512c67.738 0 122.88-55.142 122.88-122.88V131.789c0-67.789-55.09-122.88-122.88-122.88zm-448.46 709.427c-45.159 0-81.92-36.762-81.92-81.92V131.789c0-45.159 36.761-81.92 81.92-81.92h448.512c45.158 0 81.92 36.761 81.92 81.92v504.627c0 45.158-36.762 81.92-81.92 81.92H277.146zm426.188-210.483H299.418c-11.316 0-20.48 9.165-20.48 20.48s9.164 20.48 20.48 20.48h403.916c11.316 0 20.48-9.165 20.48-20.48s-9.164-20.48-20.48-20.48zM540.262 268.646H299.418c-11.316 0-20.48 9.165-20.48 20.48s9.164 20.48 20.48 20.48h240.844c11.316 0 20.48-9.164 20.48-20.48s-9.164-20.48-20.48-20.48z" horiz-adv-x="1024"/><glyph glyph-name="cinema1" unicode="" d="M887.467 19.911a34.133 34.133 0 0 0 0-68.267H136.533a34.133 34.133 0 0 0 0 68.267zm-45.511 796.445c69.12 0 125.155-56.036 125.155-125.156V114.87a45.511 45.511 0 0 0-83.558-24.963l-200.454 305.46C636.245 372.462 579.106 361.243 512 361.243s-124.245 11.219-171.099 34.122L140.447 89.907A45.511 45.511 0 0 0 56.89 114.87V691.2c0 69.12 56.035 125.156 125.155 125.156h659.912zm0-68.267H182.044a56.889 56.889 0 0 1-56.888-56.889V191.033L301.42 459.617a34.133 34.133 0 0 0 47.468 9.67c39.356-26.236 93.526-39.776 163.112-39.776s123.756 13.54 163.112 39.777a34.133 34.133 0 0 0 47.468-9.671l176.264-268.595V691.2a56.889 56.889 0 0 1-56.888 56.889z" horiz-adv-x="1024"/><glyph glyph-name="mine" unicode="" d="M909.941-12.54c-7.472 111.62-62.636 215.47-151.338 284.934l-5.332 3.683-.048-.072c-5.045 3.085-10.796 4.735-16.715 4.735-20.337 0-32.472-9.804-32.472-26.231 0-9.565 4.423-18.556 11.848-24.654l-.084-.143 4.71-3.372C794.9 173.16 836.78 92.506 844.983-13.423l.088-1.156a32.64 32.64 0 0 1-.12-2.696c0-17.9 14.51-32.413 32.412-32.413 17.3 0 31.432 13.554 32.361 30.622h.645l-.428 6.527zM805.555 530.34c0 161.142-132.675 292.25-295.765 292.25S214.023 691.482 214.023 530.34c0-86.823 38.39-167.813 105.68-223.648C198.91 242.226 118.734 119.247 109.66-16.524l-.374-5.66c-.007-.118-.017-.233-.023-.352l-.034-.516h.02c-.008-.275-.02-.55-.02-.828 0-15.176 12.303-27.48 27.48-27.48s27.482 12.303 27.482 27.48c0 .278-.013.553-.02.828h.57l.43 5.644c9.96 129.028 91.738 242.012 208.632 288.568 34.898-16.212 88.175-33.094 135.962-33.094 44.273 0 87.267 9.757 128.204 29.22l29.985 17.408 24.486 16.07c71.878 55.952 113.114 139.644 113.114 229.576zM509.789 296.913c-130.32 0-236.333 104.734-236.333 233.45 0 128.695 106.014 233.404 236.333 233.404 130.331 0 236.357-104.71 236.357-233.404 0-128.717-106.026-233.45-236.357-233.45z" horiz-adv-x="1024"/><glyph glyph-name="home" unicode="" d="M931.148 444.75 591.505 798.346c-21.106 21.953-49.313 34.034-79.551 34.034-30.235 0-58.448-12.081-79.554-34.034L92.76 444.75c-35.049-36.498-30.536-68.044-24.742-81.222 4.13-9.35 18.07-35.05 58.231-35.05h49.78V56.462c0-61.756 44.342-119.906 107.357-119.906h144.587v287.87c0 30.866-4.675 48.062 26.848 48.062h114.268c31.52 0 26.845-17.196 26.845-48.061V-63.445h144.588c63.013 0 107.358 58.15 107.358 119.906v272.016h49.782c40.16 0 54.1 25.7 58.229 35.05 5.793 13.18 10.306 44.726-24.743 81.224zm-33.486-60.28h-105.77V56.463c0-30.865-19.877-63.917-51.37-63.917h-88.6v231.882c0 61.761-19.79 104.05-82.832 104.05H454.821c-63.045 0-82.836-42.289-82.836-104.05V-7.455h-88.599c-31.495 0-51.37 33.052-51.37 63.917v328.009H126.25c-.984 0-1.888 3.852-2.708 3.907 1.94 3.388 5.276 11.975 10.825 17.743l339.671 353.35c10.142 10.578 24.467 17.057 38.353 16.924 13.888.133 27.342-6.346 37.483-16.923L889.54 406.12c5.549-5.768 8.885-14.355 10.825-17.743-.818-.055-1.72-3.907-2.704-3.907z" horiz-adv-x="1024"/><glyph glyph-name="movie" unicode="" d="M488 480c-57.6 0-104 46.4-104 104s46.4 104 104 104 104-46.4 104-104-46.4-104-104-104zm0 144c-22.4 0-40-17.6-40-40s17.6-40 40-40 40 17.6 40 40-17.6 40-40 40zM312 256c-57.6 0-104 46.4-104 104s46.4 104 104 104 104-46.4 104-104-46.4-104-104-104zm0 144c-22.4 0-40-17.6-40-40s17.6-40 40-40 40 17.6 40 40-17.6 40-40 40zM536 80c-57.6 0-104 46.4-104 104s46.4 104 104 104 104-46.4 104-104S593.6 80 536 80zm0 144c-22.4 0-40-17.6-40-40s17.6-40 40-40 40 17.6 40 40-17.6 40-40 40zm176 80c-57.6 0-104 46.4-104 104s46.4 104 104 104 104-46.4 104-104-46.4-104-104-104zm0 144c-22.4 0-40-17.6-40-40s17.6-40 40-40 40 17.6 40 40-17.6 40-40 40zM928-64H512C265.6-64 64 137.6 64 384s201.6 448 448 448 448-201.6 448-448c0-121.6-48-235.2-134.4-320-12.8-12.8-33.6-12.8-44.8 0-12.8 12.8-12.8 33.6 0 44.8C854.4 182.4 896 280 896 384c0 211.2-172.8 384-384 384S128 595.2 128 384 300.8 0 512 0h416c17.6 0 32-14.4 32-32s-14.4-32-32-32z" horiz-adv-x="1024"/><glyph glyph-name="zixun" unicode="" d="M744.727 756.364a69.818 69.818 0 0 0 69.818-69.819v-496.64a23.273 23.273 0 0 0-6.749-16.523L652.8 18.385a23.273 23.273 0 0 0-16.524-6.749H279.273a69.818 69.818 0 0 0-69.818 69.819v605.09a69.818 69.818 0 0 0 69.818 69.819h465.454m0 69.818H279.273a139.636 139.636 0 0 1-139.637-139.637V81.455A139.636 139.636 0 0 1 279.273-58.182h357.003a93.09 93.09 0 0 1 65.862 27.23l154.997 154.996a93.09 93.09 0 0 1 27.229 65.861v496.64a139.636 139.636 0 0 1-139.637 139.637zM640-58.182h-69.818V81.455A174.545 174.545 0 0 0 744.727 256h139.637v-69.818H744.727A104.96 104.96 0 0 1 640 81.455zm23.273 628.364H337.455a34.91 34.91 0 0 0 0 69.818h325.818a34.91 34.91 0 0 0 0-69.818zm0-186.182H337.455a34.91 34.91 0 0 0 0 69.818h325.818a34.91 34.91 0 0 0 0-69.818zM477.09 197.818H337.455a34.91 34.91 0 0 0 0 69.818H477.09a34.91 34.91 0 0 0 0-69.818z" horiz-adv-x="1024"/><glyph glyph-name="cinema" unicode="" d="M896 128c-17.6 0-32 14.4-32 32v544c0 17.6-14.4 32-32 32H192c-17.6 0-32-14.4-32-32V160c0-17.6-14.4-32-32-32s-32 14.4-32 32v544c0 52.8 43.2 96 96 96h640c52.8 0 96-43.2 96-96V160c0-17.6-14.4-32-32-32zm0-160H128c-17.6 0-32 14.4-32 32s14.4 32 32 32h768c17.6 0 32-14.4 32-32s-14.4-32-32-32zM736 128H288c-17.6 0-32 14.4-32 32s14.4 32 32 32h448c17.6 0 32-14.4 32-32s-14.4-32-32-32zM512 536c-86.4 0-168 14.4-236.8 41.6-16 6.4-24 25.6-17.6 41.6 6.4 16 25.6 24 41.6 17.6 59.2-24 134.4-38.4 211.2-38.4s152 12.8 211.2 38.4c16 6.4 35.2-1.6 41.6-17.6 6.4-16-1.6-35.2-17.6-41.6C680 550.4 598.4 536 512 536zM128 128c-17.6 0-32 14.4-32 32 0 83.2 36.8 139.2 73.6 192 43.2 64 86.4 129.6 86.4 256 0 17.6 14.4 32 32 32s32-14.4 32-32c0-145.6-54.4-227.2-97.6-291.2C187.2 264 160 224 160 160c0-17.6-14.4-32-32-32zm768 0c-17.6 0-32 14.4-32 32 0 64-27.2 104-62.4 156.8-43.2 64-97.6 145.6-97.6 291.2 0 17.6 14.4 32 32 32s32-14.4 32-32c0-126.4 44.8-192 86.4-256 35.2-52.8 73.6-108.8 73.6-192 0-17.6-14.4-32-32-32z" horiz-adv-x="1024"/><glyph glyph-name="wode" unicode="" d="M511 266.3c-70.8 0-137.3 27.6-187.4 77.6C273.5 394 246 460.5 246 531.3c0 70.8 27.6 137.3 77.6 187.4 50.1 50.1 116.6 77.6 187.4 77.6s137.3-27.6 187.4-77.6c50.1-50.1 77.6-116.6 77.6-187.4 0-70.8-27.6-137.3-77.6-187.4-50.1-50-116.6-77.6-187.4-77.6zm0 470.1c-113.1 0-205-92-205-205 0-113.1 92-205 205-205s205 92 205 205-91.9 205-205 205zM191.5.9c-1.9 0-3.8.2-5.7.5-16.3 3.1-26.9 18.9-23.8 35.1 15.4 80 58.5 152.9 121.4 205.3 31.3 26.1 66.4 46.4 104.4 60.5 39.4 14.5 80.8 21.9 123.1 21.9s83.8-7.4 123.1-21.9c38-14 73.2-34.4 104.4-60.5 62.9-52.5 106-125.4 121.4-205.3 3.1-16.3-7.5-32-23.8-35.1-16.3-3.1-32 7.5-35.1 23.8C774.3 163.8 652.4 264.3 511 264.3c-141.4 0-263.3-100.6-290.1-239.1C218.2 10.9 205.6.9 191.5.9z" horiz-adv-x="1024"/><glyph glyph-name="dianying" unicode="" d="M488 480c-57.6 0-104 46.4-104 104s46.4 104 104 104 104-46.4 104-104-46.4-104-104-104zm0 144c-22.4 0-40-17.6-40-40s17.6-40 40-40 40 17.6 40 40-17.6 40-40 40zM312 256c-57.6 0-104 46.4-104 104s46.4 104 104 104 104-46.4 104-104-46.4-104-104-104zm0 144c-22.4 0-40-17.6-40-40s17.6-40 40-40 40 17.6 40 40-17.6 40-40 40zM536 80c-57.6 0-104 46.4-104 104s46.4 104 104 104 104-46.4 104-104S593.6 80 536 80zm0 144c-22.4 0-40-17.6-40-40s17.6-40 40-40 40 17.6 40 40-17.6 40-40 40zm176 80c-57.6 0-104 46.4-104 104s46.4 104 104 104 104-46.4 104-104-46.4-104-104-104zm0 144c-22.4 0-40-17.6-40-40s17.6-40 40-40 40 17.6 40 40-17.6 40-40 40zM928-64H512C265.6-64 64 137.6 64 384s201.6 448 448 448 448-201.6 448-448c0-121.6-48-235.2-134.4-320-12.8-12.8-33.6-12.8-44.8 0-12.8 12.8-12.8 33.6 0 44.8C854.4 182.4 896 280 896 384c0 211.2-172.8 384-384 384S128 595.2 128 384 300.8 0 512 0h416c17.6 0 32-14.4 32-32s-14.4-32-32-32z" horiz-adv-x="1024"/></font>
</defs>
</svg>
